<svg width="150" height="32" viewBox="0 0 150 32" fill="none" xmlns="http://www.w3.org/2000/svg">
<g clip-path="url(#clip0_206_4212)">
<path d="M20.3062 28.436V28.4369C18.2269 30.6145 15.239 31.9795 11.919 31.9795C8.59907 31.9795 5.60984 30.6141 3.53052 28.436H20.3062Z" fill="white"/>
<path d="M22.925 23.8306C22.45 25.5737 21.5379 27.1472 20.307 28.4362H20.3061L16.6086 23.8306H22.925Z" fill="white"/>
<path d="M16.6088 23.8305H0.912535C0.67215 22.9465 0.543945 22.019 0.543945 21.0628C0.543945 20.4369 0.5987 19.8234 0.704202 19.2266H12.9135L16.6088 23.8305Z" fill="white"/>
<path d="M23.1335 19.2264H12.9136L9.21655 14.6221H21.1045C22.1234 15.9585 22.8334 17.5256 23.1335 19.2264Z" fill="white"/>
<path d="M9.21666 14.622H2.7334C2.76322 14.5725 4.57679 11.5408 5.52008 10.0186L6.62674 11.3964L9.21666 14.622Z" fill="white"/>
<path d="M18.3165 10.0183H5.52002C8.64947 4.96961 11.9191 0 11.9191 0C11.9191 0 15.1888 4.96961 18.3169 10.0183H18.3165Z" fill="white"/>
<path d="M55.7827 10.0186V16.5207C55.7827 23.2428 50.1479 28.7119 43.2222 28.7119C36.2964 28.7119 30.6616 23.2428 30.6616 16.5207V10.0186H35.6857V16.5207C35.6857 20.5533 39.0662 23.8354 43.2222 23.8354C47.3781 23.8354 50.7587 20.5533 50.7587 16.5207V10.0186H55.7827Z" fill="white"/>
<path d="M73.3608 19.2289H66.9964L64.0151 15.3718V28.4349H58.9951V10.0181H59.8774L64.0151 10.0215L65.8884 10.0232L73.3608 19.2289Z" fill="white"/>
<path d="M80.6868 28.4354L73.3608 19.2289L79.5823 19.234L82.8004 23.3141V10.0181H87.8204V28.4354H80.6868Z" fill="white"/>
<path d="M115.944 10.0186V14.5708H105.914V28.4359H100.894V14.5708H90.8594V10.0186H115.944Z" fill="white"/>
<path d="M145.99 10.0186L137.355 20.9665H123.994V28.4359H118.974V10.0186H123.994V16.4143H134.781L139.89 10.0237L145.99 10.0186Z" fill="white"/>
<path d="M149.456 28.4362H143.296L137.355 20.9668H143.584L149.456 28.4362Z" fill="white"/>
</g>
<defs>
<clipPath id="clip0_206_4212">
<rect width="150" height="32" fill="white"/>
</clipPath>
</defs>
</svg>
