<svg width="24" height="20" viewBox="0 0 24 20" fill="none" xmlns="http://www.w3.org/2000/svg">
<path d="M13 1H11M8 15H1M18 17.0001C18 18.1047 18.8954 19.0001 20 19.0001C21.1046 19.0001 22 18.1046 22 17C22 15.8954 21.1046 14.9999 20 14.9999C18.8954 14.9999 18 15.8955 18 17.0001ZM18 17.0001C18 18.1047 17.1046 19.0001 16 19.0001C14.8954 19.0001 14 18.1047 14 17.0001C14 15.8955 14.8954 14.9999 16 14.9999C17.1046 14.9999 18 15.8955 18 17.0001ZM7 15H17C20.3137 15 23 12.3137 23 9C23 5.68629 20.3137 3 17 3H7C3.68629 3 1 5.68629 1 9C1 12.3137 3.68629 15 7 15Z" stroke="#141414" stroke-width="1.6" stroke-linecap="round" stroke-linejoin="round"/>
</svg>
