<svg width="22" height="22" viewBox="0 0 22 22" fill="none" xmlns="http://www.w3.org/2000/svg">
<path d="M3 7V12M3 7L3.72147 2.6712C3.8822 1.70683 4.71658 1 5.69425 1H16.3057C17.2834 1 18.1178 1.70683 18.2785 2.6712L19 7M3 7H19M19 7V12M21 18.0003L17 18.0003M21 18.0003V19.0001C21 20.1046 20.1046 21.0001 19 21.0001C17.8954 21.0001 17 20.1047 17 19.0002V18.0003M21 18.0003V14C21 12.8954 20.1046 12 19 12V12M17 18.0003L5 18.0002M5 18.0002H1M5 18.0002V19.0002C5 20.1047 4.10457 21.0001 3 21.0001C1.89543 21.0001 1 20.1047 1 19.0002V18.0002M1 18.0002V14C1 12.8954 1.89543 12 3 12V12M3 12H4M19 12H18M1 7V5M21 7V5" stroke="#141414" stroke-width="1.6" stroke-linecap="round" stroke-linejoin="round"/>
</svg>
