<svg width="16" height="20" viewBox="0 0 16 20" fill="none" xmlns="http://www.w3.org/2000/svg">
<path d="M5 7.00006H11M5 10.0001H8.00001M15 19L15 4.19981C15 3.0797 15 2.51994 14.782 2.09211C14.5903 1.71579 14.2845 1.40952 13.9082 1.21777C13.4808 1 12.921 1 11.8031 1H4.19691C3.07899 1 2.52001 1 2.09261 1.21777C1.71628 1.40952 1.40952 1.71579 1.21777 2.09212C1 2.51952 1 3.07851 1 4.19642V19L3.33334 17L5.66667 19L8.00001 17L10.3333 19L12.6667 17L15 19Z" stroke="#141414" stroke-width="1.6" stroke-linecap="round" stroke-linejoin="round"/>
</svg>
