<svg width="10" height="12" viewBox="0 0 10 12" fill="none" xmlns="http://www.w3.org/2000/svg">
<path d="M9.5 5.32308H6.62L5.03 6.67692H9.5V7.78462H3.89C3.44 8.15385 3.2 8.61538 3.2 9.13846C3.2 10.0923 3.89 10.6154 5.21 10.6154C6.26 10.6154 7.1 10.1231 7.85 9.07692L8.99 9.87692C8 11.2923 6.59 12 5.15 12C3.08 12 1.7 10.9538 1.7 9.38461C1.7 8.8 1.91 8.24615 2.3 7.78462H0.5V6.67692H3.2L4.79 5.32308H0.5V4.21538H5.99C6.5 3.69231 6.71 3.29231 6.71 2.8C6.71 1.93846 5.96 1.35385 4.88 1.35385C3.92 1.35385 3.08 1.93846 2.51 2.92308L1.31 2.09231C2.09 0.769231 3.35 0 4.85 0C6.89 0 8.21 1.07692 8.21 2.64615C8.21 3.2 8.03 3.78462 7.7 4.21538H9.5V5.32308Z" fill="white"/>
</svg>
