<svg width="20" height="20" viewBox="0 0 20 20" fill="none" xmlns="http://www.w3.org/2000/svg">
<path d="M7 4H7.33687C7.58146 4 7.70385 4 7.81893 4.02763C7.92097 4.05213 8.01893 4.09263 8.1084 4.14746C8.20928 4.20928 8.29591 4.29591 8.46875 4.46875L11.5315 7.53149C11.7044 7.70444 11.7904 7.79044 11.8523 7.89135C11.9071 7.98082 11.9482 8.07863 11.9727 8.18066C12 8.29458 12 8.41553 12 8.65515V16M7 4H2.59961C2.03956 4 1.75981 4 1.5459 4.10899C1.35774 4.20487 1.20487 4.35774 1.10899 4.5459C1 4.75981 1 5.04004 1 5.6001V17.4001C1 17.9601 1 18.2398 1.10899 18.4537C1.20487 18.6419 1.35774 18.7952 1.5459 18.8911C1.7596 19 2.03902 19 2.598 19L10.4011 19C10.96 19 11.2405 19 11.4542 18.8911C11.6423 18.7952 11.7948 18.6421 11.8906 18.4539C11.9996 18.24 12 17.9599 12 17.3999V16M7 4V7.4C7 7.96005 7 8.23988 7.10899 8.4538C7.20487 8.64196 7.35774 8.79524 7.5459 8.89111C7.7596 9 8.03901 9 8.59797 9H11.9996M8 4.0001V2.6001C8 2.04005 8 1.75981 8.10899 1.5459C8.20487 1.35774 8.35774 1.20487 8.5459 1.10899C8.75981 1 9.03956 1 9.59961 1H14M14 1H14.3369C14.5815 1 14.7038 1 14.8189 1.02763C14.921 1.05213 15.0189 1.09263 15.1084 1.14746C15.2093 1.20928 15.2959 1.29592 15.4688 1.46875L18.5315 4.53149C18.7044 4.70444 18.7904 4.79044 18.8523 4.89135C18.9071 4.98082 18.9482 5.07863 18.9727 5.18066C19 5.29458 19 5.41552 19 5.65515V14.3999C19 14.9599 18.9996 15.24 18.8906 15.4539C18.7948 15.6421 18.6429 15.7952 18.4548 15.8911C18.2411 16 17.961 16 17.402 16H12M14 1V4.4C14 4.96005 14 5.23988 14.109 5.4538C14.2049 5.64196 14.3577 5.79524 14.5459 5.89111C14.7596 6 15.039 6 15.598 6H18.9996" stroke="#141414" stroke-width="1.6" stroke-linecap="round" stroke-linejoin="round"/>
</svg>
